<?xml version="1.0" encoding="UTF-8"?>
<svg id="_レイヤー_2" data-name="レイヤー 2" xmlns="http://www.w3.org/2000/svg" viewBox="0 0 10.79 10.79">
  <defs>
    <style>
      .cls-1 {
        fill: #221815;
      }

      .cls-2 {
        fill: #fff;
      }
    </style>
  </defs>
  <g id="svg2">
    <g id="g1700">
      <g id="g1768">
        <path id="path1770" class="cls-1" d="M0,5.39c0,2.97,2.42,5.39,5.4,5.39s5.39-2.42,5.39-5.39S8.37,0,5.4,0,0,2.42,0,5.39"/>
      </g>
      <path id="path1772" class="cls-2" d="M7.42,8.63H3.37v-4.03h4.05v4.03ZM2.9,9.11h5v-4.98H2.9v4.98Z"/>
      <g id="g1774">
        <path id="path1776" class="cls-2" d="M5.24,2.72v-.57l-.91.91v-1.93h-.45v1.93l-.91-.91v.57l1.14,1.14,1.14-1.14Z"/>
      </g>
      <g id="g1778">
        <path id="path1780" class="cls-2" d="M6.47,1.86v1.94h.45v-1.94l.91.91v-.57l-1.13-1.13-1.14,1.13v.57l.91-.91Z"/>
      </g>
      <g id="g1782">
        <path id="path1784" class="cls-2" d="M3.64,7.11h.15v1.29h.25l.09-1.29h.04l.09,1.29h.25v-1.29h.16l.05-.86c.01-.18-.11-.33-.29-.36-.09-.02-.19-.02-.28-.02s-.19,0-.27.02c-.18.03-.3.18-.29.36l.05.86Z"/>
      </g>
      <g id="g1786">
        <path id="path1788" class="cls-2" d="M4.16,5.77c.12,0,.22-.1.22-.23s-.1-.23-.22-.23-.23.1-.23.23.1.23.23.23"/>
      </g>
      <g id="g1790">
        <path id="path1792" class="cls-2" d="M4.89,7.11h.15v1.29h.25l.09-1.29h.04l.09,1.29h.25v-1.29h.15l.05-.86c.01-.18-.11-.33-.29-.36-.09-.02-.18-.02-.28-.02s-.18,0-.28.02c-.17.03-.3.18-.29.36l.05.86Z"/>
      </g>
      <g id="g1794">
        <path id="path1796" class="cls-2" d="M5.41,5.77c.13,0,.23-.1.23-.23s-.1-.23-.23-.23-.22.1-.22.23.1.23.22.23"/>
      </g>
      <g id="g1798">
        <path id="path1800" class="cls-2" d="M6.14,7.11h.16v1.29h.25l.09-1.29h.04l.09,1.29h.25v-1.29h.15l.05-.86c0-.18-.11-.33-.29-.36-.09-.02-.18-.02-.27-.02s-.18,0-.28.02c-.17.03-.3.18-.29.36l.05.86Z"/>
      </g>
      <g id="g1802">
        <path id="path1804" class="cls-2" d="M6.66,5.77c.12,0,.23-.1.23-.23s-.11-.23-.23-.23-.23.1-.23.23.1.23.23.23"/>
      </g>
    </g>
  </g>
</svg>