<?xml version="1.0" encoding="UTF-8"?>
<svg id="_レイヤー_2" data-name="レイヤー 2" xmlns="http://www.w3.org/2000/svg" viewBox="0 0 11.56 11.56">
  <defs>
    <style>
      .cls-1 {
        fill: #221815;
      }

      .cls-2 {
        fill: #fff;
      }
    </style>
  </defs>
  <g id="_レイヤー_1-2" data-name="レイヤー 1">
    <g>
      <path class="cls-1" d="M0,5.78c0,3.19,2.59,5.78,5.79,5.78s5.78-2.59,5.78-5.78S8.97,0,5.79,0,0,2.59,0,5.78"/>
      <path class="cls-2" d="M5.13,3.21c.21,0,.39-.17.39-.39s-.18-.39-.39-.39-.4.18-.4.39.18.39.4.39"/>
      <path class="cls-2" d="M9.7,4.2c0,.57-.46.99-1.03.99h-.72l-3.53,3.51h-1.57c-.56,0-1.01-.42-1.01-.98s.45-1.01,1.01-1.01h.72l1.11-1.1-.22-1.8v-.06c0-.21.15-.38.35-.4.1-.01.21-.02.33-.02.11,0,.22,0,.33.02.19.02.35.19.35.4v.06s-.1.78-.1.78l1.41-1.4h1.55c.57,0,1.03.45,1.03,1.01M2.85,7.2c-.14,0-.28.05-.37.15-.09.1-.15.23-.15.37s.05.26.14.35c.09.1.23.15.38.15h1.37l3.53-3.52h.92c.31,0,.55-.21.55-.5,0-.14-.05-.27-.15-.36-.1-.1-.24-.16-.4-.16h-1.35l-3.54,3.52h-.92Z"/>
    </g>
  </g>
</svg>