<?xml version="1.0" encoding="UTF-8"?>
<svg id="_レイヤー_2" xmlns="http://www.w3.org/2000/svg" version="1.1" viewBox="0 0 10.8 10.8">
  <!-- Generator: Adobe Illustrator 30.3.0, SVG Export Plug-In . SVG Version: 2.1.3 Build 182)  -->
  <defs>
    <style>
      .st0 {
        fill: #221815;
      }

      .st1 {
        fill: #fff;
      }
    </style>
  </defs>
  <g id="g1700">
    <g id="g1768">
      <path id="path1770" class="st0" d="M0,5.4C0,8.4,2.4,10.8,5.4,10.8s5.4-2.4,5.4-5.4S8.4,0,5.4,0,0,2.4,0,5.4"/>
    </g>
  </g>
  <g id="_生成オブジェクト_0">
    <path class="st1" d="M5.9,5.8h-2.8v-1.1l-1.1-.3v-.4c.1,0,1.2.3,1.2.3h2.5v-1.2h-2.5v-1.7h4.2v.5h-2l.3.6h2.5v3.3h-2.1ZM7.6,3.9v-.8h-1.3v.8h1.3Z"/>
    <polygon class="st1" points="6 6.8 5 6.8 5 7.1 3.1 7.1 3.1 6 8 6 8 7.1 6 7.1 6 6.8"/>
    <polygon class="st1" points="6 8.1 5 8.1 5 8.4 3.1 8.4 3.1 7.3 8 7.3 8 8.4 6 8.4 6 8.1"/>
    <rect class="st1" x="3.1" y="8.6" width="4.9" height=".7" transform="translate(0 0) rotate(-.2)"/>
  </g>
</svg>
