<?xml version="1.0" encoding="UTF-8"?>
<svg id="_レイヤー_2" data-name="レイヤー 2" xmlns="http://www.w3.org/2000/svg" viewBox="0 0 11.57 11.57">
  <defs>
    <style>
      .cls-1 {
        fill: #221815;
      }

      .cls-2 {
        fill: #fff;
      }
    </style>
  </defs>
  <g id="_レイヤー_1-2" data-name="レイヤー 1">
    <g>
      <path class="cls-1" d="M0,5.78c0,3.19,2.58,5.78,5.78,5.78s5.78-2.59,5.78-5.78S8.97,0,5.78,0,0,2.59,0,5.78"/>
      <polygon class="cls-2" points="3.53 3.68 3.48 3.73 3 3.73 2.94 3.68 2.94 2.86 3 2.8 3.48 2.8 3.53 2.86 3.53 3.68"/>
      <polygon class="cls-2" points="4.4 3.68 4.34 3.73 3.86 3.73 3.8 3.68 3.8 2.86 3.86 2.8 4.34 2.8 4.4 2.86 4.4 3.68"/>
      <polygon class="cls-2" points="5.26 3.68 5.2 3.73 4.72 3.73 4.66 3.68 4.66 2.86 4.72 2.8 5.2 2.8 5.26 2.86 5.26 3.68"/>
      <polygon class="cls-2" points="6.12 3.68 6.06 3.73 5.58 3.73 5.53 3.68 5.53 2.86 5.58 2.8 6.06 2.8 6.12 2.86 6.12 3.68"/>
      <polygon class="cls-2" points="3.53 4.9 3.48 4.96 3 4.96 2.94 4.9 2.94 4.08 3 4.02 3.48 4.02 3.53 4.08 3.53 4.9"/>
      <polygon class="cls-2" points="4.4 4.9 4.34 4.96 3.86 4.96 3.8 4.9 3.8 4.08 3.86 4.02 4.34 4.02 4.4 4.08 4.4 4.9"/>
      <polygon class="cls-2" points="5.26 4.9 5.2 4.96 4.72 4.96 4.66 4.9 4.66 4.08 4.72 4.02 5.2 4.02 5.26 4.08 5.26 4.9"/>
      <polygon class="cls-2" points="6.12 4.9 6.06 4.96 5.58 4.96 5.53 4.9 5.53 4.08 5.58 4.02 6.06 4.02 6.12 4.08 6.12 4.9"/>
      <polygon class="cls-2" points="5.96 8.36 5.99 8.43 5.83 8.88 5.75 8.92 4.99 8.64 4.95 8.56 5.12 8.11 5.19 8.08 5.96 8.36"/>
      <path class="cls-2" d="M6.73,9.3c0,.13-.11.23-.24.23h-3.93c-.12,0-.23-.1-.23-.23V2.17c0-.12.11-.23.23-.23h3.93c.13,0,.24.11.24.23v7.12ZM6.29,9.07l.09-.09v-1.05l-.09-.09h-3.53l-.08.09v1.05l.08.09h3.53ZM6.29,5.22l.09-.09v-2.5l-.09-.09h-3.53l-.08.09v2.5l.08.09h3.53ZM5.47,7.51c.53,0,.96-.43.96-.96s-.43-.97-.96-.97-.97.44-.97.97.43.96.97.96"/>
      <polygon class="cls-2" points="5.3 6.98 5.03 6.98 5.03 6.83 5.3 6.83 5.3 6.75 5.28 6.72 5.03 6.72 5.03 6.56 5.2 6.56 4.9 5.94 5.25 5.94 5.47 6.47 5.69 5.94 6.04 5.94 5.74 6.56 5.91 6.56 5.91 6.72 5.65 6.72 5.64 6.75 5.64 6.83 5.91 6.83 5.91 6.98 5.64 6.98 5.64 7.24 5.3 7.24 5.3 6.98"/>
      <path class="cls-2" d="M9.17,3.19c0,.29-.23.51-.51.51s-.51-.22-.51-.51.23-.51.51-.51.51.23.51.51"/>
      <path class="cls-2" d="M6.79,6.1s.78-1.84.83-1.96c.03-.08.09-.18.2-.2.11-.02.44-.1.79-.1s.78.02,1.01.21c.24.19.29.31.26.82-.04.51-.13,1.66-.13,1.66h-.27l-.2,2.98h-.47l-.08-2.88h-.13l-.08,2.88h-.46l-.32-4.35-.59,1.12-.36-.19Z"/>
    </g>
  </g>
</svg>